<svg xmlns="http://www.w3.org/2000/svg" width="45" height="44" viewBox="0 0 45 44" fill="none">
  <path fill-rule="evenodd" clip-rule="evenodd" d="M22.5 39.5999C32.4411 39.5999 40.5 31.7201 40.5 21.9999C40.5 12.2797 32.4411 4.3999 22.5 4.3999C12.5589 4.3999 4.5 12.2797 4.5 21.9999C4.5 31.7201 12.5589 39.5999 22.5 39.5999ZM24.75 15.3999C24.75 14.1849 23.7426 13.1999 22.5 13.1999C21.2573 13.1999 20.25 14.1849 20.25 15.3999V19.7999H15.75C14.5074 19.7999 13.5 20.7849 13.5 21.9999C13.5 23.2149 14.5074 24.1999 15.75 24.1999H20.25V28.5999C20.25 29.8149 21.2573 30.7999 22.5 30.7999C23.7426 30.7999 24.75 29.8149 24.75 28.5999V24.1999H29.25C30.4926 24.1999 31.5 23.2149 31.5 21.9999C31.5 20.7849 30.4926 19.7999 29.25 19.7999H24.75V15.3999Z" fill="#9747FF"/>
</svg>