<svg xmlns="http://www.w3.org/2000/svg" width="26" height="25" viewBox="0 0 26 25" fill="none">
  <path fill-rule="evenodd" clip-rule="evenodd" d="M4.28857 5.15008C4.28857 4.47653 4.83459 3.93051 5.50814 3.93051H9.16683C9.84038 3.93051 10.3864 4.47653 10.3864 5.15008V8.80877C10.3864 9.48231 9.84038 10.0283 9.16683 10.0283H5.50814C4.83459 10.0283 4.28857 9.48231 4.28857 8.80877V5.15008ZM6.7277 7.5892V6.36964H7.94727V7.5892H6.7277Z" fill="white"/>
  <path fill-rule="evenodd" clip-rule="evenodd" d="M4.28857 16.1262C4.28857 15.4526 4.83459 14.9066 5.50814 14.9066H9.16683C9.84038 14.9066 10.3864 15.4526 10.3864 16.1262V19.7848C10.3864 20.4584 9.84038 21.0044 9.16683 21.0044H5.50814C4.83459 21.0044 4.28857 20.4584 4.28857 19.7848V16.1262ZM6.7277 18.5653V17.3457H7.94727V18.5653H6.7277Z" fill="white"/>
  <path fill-rule="evenodd" clip-rule="evenodd" d="M16.4842 3.93051C15.8107 3.93051 15.2646 4.47653 15.2646 5.15008V8.80877C15.2646 9.48231 15.8107 10.0283 16.4842 10.0283H20.1429C20.8165 10.0283 21.3625 9.48231 21.3625 8.80877V5.15008C21.3625 4.47653 20.8165 3.93051 20.1429 3.93051H16.4842ZM17.7038 6.36964V7.5892H18.9233V6.36964H17.7038Z" fill="white"/>
  <path d="M14.0451 5.15008C14.0451 4.47653 13.4991 3.93051 12.8255 3.93051C12.152 3.93051 11.606 4.47653 11.606 5.15008V6.36964C11.606 7.04319 12.152 7.5892 12.8255 7.5892C13.4991 7.5892 14.0451 7.04319 14.0451 6.36964V5.15008Z" fill="white"/>
  <path d="M12.8255 8.80877C13.4991 8.80877 14.0451 9.35478 14.0451 10.0283V11.2479H16.4842C17.1578 11.2479 17.7038 11.7939 17.7038 12.4675C17.7038 13.141 17.1578 13.687 16.4842 13.687H12.8255C12.152 13.687 11.606 13.141 11.606 12.4675V10.0283C11.606 9.35478 12.152 8.80877 12.8255 8.80877Z" fill="white"/>
  <path d="M20.1429 11.2479C19.4694 11.2479 18.9233 11.7939 18.9233 12.4675C18.9233 13.141 19.4694 13.687 20.1429 13.687C20.8165 13.687 21.3625 13.141 21.3625 12.4675C21.3625 11.7939 20.8165 11.2479 20.1429 11.2479Z" fill="white"/>
  <path d="M11.606 16.1262C11.606 15.4526 12.152 14.9066 12.8255 14.9066H14.0451C14.7186 14.9066 15.2646 15.4526 15.2646 16.1262C15.2646 16.7997 14.7186 17.3457 14.0451 17.3457V19.7848C14.0451 20.4584 13.4991 21.0044 12.8255 21.0044C12.152 21.0044 11.606 20.4584 11.606 19.7848V16.1262Z" fill="white"/>
  <path d="M9.16683 13.687C9.84038 13.687 10.3864 13.141 10.3864 12.4675C10.3864 11.7939 9.84038 11.2479 9.16683 11.2479H5.50814C4.83459 11.2479 4.28857 11.7939 4.28857 12.4675C4.28857 13.141 4.83459 13.687 5.50814 13.687H9.16683Z" fill="white"/>
  <path d="M21.3625 16.1262C21.3625 16.7997 20.8165 17.3457 20.1429 17.3457H17.7038C17.0302 17.3457 16.4842 16.7997 16.4842 16.1262C16.4842 15.4526 17.0302 14.9066 17.7038 14.9066H20.1429C20.8165 14.9066 21.3625 15.4526 21.3625 16.1262Z" fill="white"/>
  <path d="M20.1429 21.0044C20.8165 21.0044 21.3625 20.4584 21.3625 19.7848C21.3625 19.1113 20.8165 18.5653 20.1429 18.5653H16.4842C15.8107 18.5653 15.2646 19.1113 15.2646 19.7848C15.2646 20.4584 15.8107 21.0044 16.4842 21.0044H20.1429Z" fill="white"/>
</svg>